  0
SECTION
  2
HEADER
  9
$ACADVER
  1
AC1009
  9
$INSBASE
 10
0.0
 20
0.0
 30
0.0
  9
$EXTMIN
 10
45.697446643320397
 20
45.697446643320241
 30
0.0
  9
$EXTMAX
 10
154.31389128493481
 20
154.31389128493481
 30
0.0
  9
$LIMMIN
 10
0.0
 20
0.0
  9
$LIMMAX
 10
420.0
 20
297.0
  9
$ORTHOMODE
 70
     0
  9
$REGENMODE
 70
     1
  9
$FILLMODE
 70
     1
  9
$QTEXTMODE
 70
     0
  9
$MIRRTEXT
 70
     0
  9
$DRAGMODE
 70
     2
  9
$LTSCALE
 40
1.0
  9
$OSMODE
 70
    37
  9
$ATTMODE
 70
     1
  9
$TEXTSIZE
 40
2.5
  9
$TRACEWID
 40
1.0
  9
$TEXTSTYLE
  7
STANDARD
  9
$CLAYER
  8
0
  9
$CELTYPE
  6
BYLAYER
  9
$CECOLOR
 62
   256
  9
$DIMSCALE
 40
1.0
  9
$DIMASZ
 40
2.5
  9
$DIMEXO
 40
0.625
  9
$DIMDLI
 40
3.75
  9
$DIMRND
 40
0.0
  9
$DIMDLE
 40
0.0
  9
$DIMEXE
 40
1.25
  9
$DIMTP
 40
0.0
  9
$DIMTM
 40
0.0
  9
$DIMTXT
 40
2.5
  9
$DIMCEN
 40
2.5
  9
$DIMTSZ
 40
0.0
  9
$DIMTOL
 70
     0
  9
$DIMLIM
 70
     0
  9
$DIMTIH
 70
     0
  9
$DIMTOH
 70
     0
  9
$DIMSE1
 70
     0
  9
$DIMSE2
 70
     0
  9
$DIMTAD
 70
     1
  9
$DIMZIN
 70
     8
  9
$DIMBLK
  1

  9
$DIMASO
 70
     1
  9
$DIMSHO
 70
     1
  9
$DIMPOST
  1

  9
$DIMAPOST
  1

  9
$DIMALT
 70
     0
  9
$DIMALTD
 70
     3
  9
$DIMALTF
 40
0.03937007874016
  9
$DIMLFAC
 40
1.0
  9
$DIMTOFL
 70
     1
  9
$DIMTVP
 40
0.0
  9
$DIMTIX
 70
     0
  9
$DIMSOXD
 70
     0
  9
$DIMSAH
 70
     0
  9
$DIMBLK1
  1

  9
$DIMBLK2
  1

  9
$DIMSTYLE
  2
ISO-25
  9
$DIMCLRD
 70
     0
  9
$DIMCLRE
 70
     0
  9
$DIMCLRT
 70
     0
  9
$DIMTFAC
 40
1.0
  9
$DIMGAP
 40
0.625
  9
$LUNITS
 70
     2
  9
$LUPREC
 70
     4
  9
$SKETCHINC
 40
1.0
  9
$FILLETRAD
 40
0.0
  9
$AUNITS
 70
     0
  9
$AUPREC
 70
     0
  9
$MENU
  1
.
  9
$ELEVATION
 40
0.0
  9
$PELEVATION
 40
0.0
  9
$THICKNESS
 40
0.0
  9
$LIMCHECK
 70
     0
  9
$BLIPMODE
 70
     0
  9
$CHAMFERA
 40
0.0
  9
$CHAMFERB
 40
0.0
  9
$SKPOLY
 70
     0
  9
$TDCREATE
 40
2457483.9293001969
  9
$TDUPDATE
 40
2457483.930753889
  9
$TDINDWG
 40
0.0014554051
  9
$TDUSRTIMER
 40
0.0014553819
  9
$USRTIMER
 70
     1
  9
$ANGBASE
 50
0.0
  9
$ANGDIR
 70
     0
  9
$PDMODE
 70
     0
  9
$PDSIZE
 40
0.0
  9
$PLINEWID
 40
0.0
  9
$COORDS
 70
     1
  9
$SPLFRAME
 70
     0
  9
$SPLINETYPE
 70
     6
  9
$SPLINESEGS
 70
     8
  9
$ATTDIA
 70
     1
  9
$ATTREQ
 70
     1
  9
$HANDLING
 70
     1
  9
$HANDSEED
  5
4A0
  9
$SURFTAB1
 70
     6
  9
$SURFTAB2
 70
     6
  9
$SURFTYPE
 70
     6
  9
$SURFU
 70
     6
  9
$SURFV
 70
     6
  9
$UCSNAME
  2

  9
$UCSORG
 10
0.0
 20
0.0
 30
0.0
  9
$UCSXDIR
 10
1.0
 20
0.0
 30
0.0
  9
$UCSYDIR
 10
0.0
 20
1.0
 30
0.0
  9
$PUCSNAME
  2

  9
$PUCSORG
 10
0.0
 20
0.0
 30
0.0
  9
$PUCSXDIR
 10
1.0
 20
0.0
 30
0.0
  9
$PUCSYDIR
 10
0.0
 20
1.0
 30
0.0
  9
$USERI1
 70
     0
  9
$USERI2
 70
     0
  9
$USERI3
 70
     0
  9
$USERI4
 70
     0
  9
$USERI5
 70
     0
  9
$USERR1
 40
0.0
  9
$USERR2
 40
0.0
  9
$USERR3
 40
0.0
  9
$USERR4
 40
0.0
  9
$USERR5
 40
0.0
  9
$WORLDVIEW
 70
     1
  9
$SHADEDGE
 70
     3
  9
$SHADEDIF
 70
    70
  9
$TILEMODE
 70
     1
  9
$MAXACTVP
 70
    64
  9
$PLIMCHECK
 70
     0
  9
$PEXTMIN
 10
1.0000000000000000E+020
 20
1.0000000000000000E+020
 30
1.0000000000000000E+020
  9
$PEXTMAX
 10
-1.0000000000000000E+020
 20
-1.0000000000000000E+020
 30
-1.0000000000000000E+020
  9
$PLIMMIN
 10
0.0
 20
0.0
  9
$PLIMMAX
 10
420.0
 20
297.0
  9
$UNITMODE
 70
     0
  9
$VISRETAIN
 70
     1
  9
$PLINEGEN
 70
     0
  9
$PSLTSCALE
 70
     1
  0
ENDSEC
  0
SECTION
  2
TABLES
  0
TABLE
  2
VPORT
 70
     1
  0
VPORT
  2
*ACTIVE
 70
     0
 10
0.0
 20
0.0
 11
1.0
 21
1.0
 12
301.9288008565311
 22
148.5
 13
0.0
 23
0.0
 14
10.0
 24
10.0
 15
10.0
 25
10.0
 16
0.0
 26
0.0
 36
1.0
 17
0.0
 27
0.0
 37
0.0
 40
297.0
 41
2.0331905781584578
 42
50.0
 43
0.0
 44
0.0
 50
0.0
 51
0.0
 71
     0
 72
  1000
 73
     1
 74
     3
 75
     0
 76
     1
 77
     0
 78
     0
  0
ENDTAB
  0
TABLE
  2
LTYPE
 70
     2
  0
LTYPE
  2
CONTINUOUS
 70
     0
  3
Solid line
 72
    65
 73
     0
 40
0.0
  0
ENDTAB
  0
TABLE
  2
LAYER
 70
     1
  0
LAYER
  2
0
 70
     0
 62
     7
  6
CONTINUOUS
  0
ENDTAB
  0
TABLE
  2
STYLE
 70
     2
  0
STYLE
  2
STANDARD
 70
     0
 40
0.0
 41
1.0
 50
0.0
 71
     0
 42
2.5
  3
txt
  4

  0
STYLE
  2
ANNOTATIVE
 70
     0
 40
0.0
 41
1.0
 50
0.0
 71
     0
 42
0.2
  3
txt
  4

  0
ENDTAB
  0
TABLE
  2
VIEW
 70
     1
  0
ENDTAB
  0
TABLE
  2
UCS
 70
     0
  0
ENDTAB
  0
TABLE
  2
APPID
 70
     5
  0
APPID
  2
ACAD
 70
     0
  0
APPID
  2
ACADANNOTATIVE
 70
     0
  0
APPID
  2
ACAD_NAV_VCDISPLAY
 70
     0
  0
APPID
  2
ACAD_EXEMPT_FROM_CAD_STANDARDS
 70
     0
  0
APPID
  2
ACAD_MLEADERVER
 70
     0
  0
ENDTAB
  0
TABLE
  2
DIMSTYLE
 70
     3
  0
DIMSTYLE
  2
ISO-25
 70
     0
  3

  4

  5

  6

  7

 40
1.0
 41
2.5
 42
0.625
 43
3.75
 44
1.25
 45
0.0
 46
0.0
 47
0.0
 48
0.0
140
2.5
141
2.5
142
0.0
143
0.03937007874016
144
1.0
145
0.0
146
1.0
147
0.625
 71
     0
 72
     0
 73
     0
 74
     0
 75
     0
 76
     0
 77
     1
 78
     8
170
     0
171
     3
172
     1
173
     0
174
     0
175
     0
176
     0
177
     0
178
     0
  0
DIMSTYLE
  2
ANNOTATIVE
 70
     0
  3

  4

  5

  6

  7

 40
1.0
 41
0.18
 42
0.0625
 43
0.38
 44
0.18
 45
0.0
 46
0.0
 47
0.0
 48
0.0
140
0.18
141
0.09
142
0.0
143
25.399999999999999
144
1.0
145
0.0
146
1.0
147
0.09
 71
     0
 72
     0
 73
     1
 74
     1
 75
     0
 76
     0
 77
     0
 78
     0
170
     0
171
     2
172
     0
173
     0
174
     0
175
     0
176
     0
177
     0
178
     0
  0
ENDTAB
  0
ENDSEC
  0
SECTION
  2
BLOCKS
  0
BLOCK
  8
0
  2
$MODEL_SPACE
 70
     0
 10
0.0
 20
0.0
 30
0.0
  3
$MODEL_SPACE
  1

  0
ENDBLK
  5
72
  8
0
  0
BLOCK
 67
     1
  8
0
  2
$PAPER_SPACE
 70
     0
 10
0.0
 20
0.0
 30
0.0
  3
$PAPER_SPACE
  1

  0
ENDBLK
  5
6E
 67
     1
  8
0
  0
ENDSEC
  0
SECTION
  2
ENTITIES
  0
POLYLINE
  5
83
  8
0
 10
50.0
 20
50.0
 30
0.0
 66
     1
 70
     8
  0
VERTEX
  8
0
  5
41E
 10
50.0000
 20
50.0000
 30
0.000000
  70
    32
  0
VERTEX
  8
0
  5
41F
 10
51.1011
 20
49.0193
 30
0.000000
  70
    32
  0
VERTEX
  8
0
  5
420
 10
52.3200
 20
48.1615
 30
0.000000
  70
    32
  0
VERTEX
  8
0
  5
421
 10
53.6538
 20
47.4286
 30
0.000000
  70
    32
  0
VERTEX
  8
0
  5
422
 10
55.0992
 20
46.8222
 30
0.000000
  70
    32
  0
VERTEX
  8
0
  5
423
 10
56.6528
 20
46.3440
 30
0.000000
  70
    32
  0
VERTEX
  8
0
  5
424
 10
58.3109
 20
45.9951
 30
0.000000
  70
    32
  0
VERTEX
  8
0
  5
425
 10
60.0693
 20
45.7763
 30
0.000000
  70
    32
  0
VERTEX
  8
0
  5
426
 10
61.9240
 20
45.6881
 30
0.000000
  70
    32
  0
VERTEX
  8
0
  5
427
 10
63.8703
 20
45.7307
 30
0.000000
  70
    32
  0
VERTEX
  8
0
  5
428
 10
65.9038
 20
45.9041
 30
0.000000
  70
    32
  0
VERTEX
  8
0
  5
429
 10
68.0193
 20
46.2078
 30
0.000000
  70
    32
  0
VERTEX
  8
0
  5
42A
 10
70.2119
 20
46.6411
 30
0.000000
  70
    32
  0
VERTEX
  8
0
  5
42B
 10
72.4763
 20
47.2029
 30
0.000000
  70
    32
  0
VERTEX
  8
0
  5
42C
 10
74.8070
 20
47.8920
 30
0.000000
  70
    32
  0
VERTEX
  8
0
  5
42D
 10
77.1984
 20
48.7065
 30
0.000000
  70
    32
  0
VERTEX
  8
0
  5
42E
 10
79.6447
 20
49.6447
 30
0.000000
  70
    32
  0
VERTEX
  8
0
  5
42F
 10
82.1400
 20
50.7041
 30
0.000000
  70
    32
  0
VERTEX
  8
0
  5
430
 10
84.6784
 20
51.8823
 30
0.000000
  70
    32
  0
VERTEX
  8
0
  5
431
 10
87.2536
 20
53.1764
 30
0.000000
  70
    32
  0
VERTEX
  8
0
  5
432
 10
89.8596
 20
54.5834
 30
0.000000
  70
    32
  0
VERTEX
  8
0
  5
433
 10
92.4900
 20
56.0997
 30
0.000000
  70
    32
  0
VERTEX
  8
0
  5
434
 10
95.1385
 20
57.7218
 30
0.000000
  70
    32
  0
VERTEX
  8
0
  5
435
 10
97.7988
 20
59.4457
 30
0.000000
  70
    32
  0
VERTEX
  8
0
  5
436
 10
100.464
 20
61.2674
 30
0.000000
  70
    32
  0
VERTEX
  8
0
  5
437
 10
103.129
 20
63.1823
 30
0.000000
  70
    32
  0
VERTEX
  8
0
  5
438
 10
105.786
 20
65.1860
 30
0.000000
  70
    32
  0
VERTEX
  8
0
  5
439
 10
108.428
 20
67.2735
 30
0.000000
  70
    32
  0
VERTEX
  8
0
  5
43A
 10
111.051
 20
69.4399
 30
0.000000
  70
    32
  0
VERTEX
  8
0
  5
43B
 10
113.647
 20
71.6799
 30
0.000000
  70
    32
  0
VERTEX
  8
0
  5
43C
 10
116.210
 20
73.9881
 30
0.000000
  70
    32
  0
VERTEX
  8
0
  5
43D
 10
118.734
 20
76.3590
 30
0.000000
  70
    32
  0
VERTEX
  8
0
  5
43E
 10
121.213
 20
78.7868
 30
0.000000
  70
    32
  0
VERTEX
  8
0
  5
43F
 10
123.641
 20
81.2657
 30
0.000000
  70
    32
  0
VERTEX
  8
0
  5
440
 10
126.012
 20
83.7898
 30
0.000000
  70
    32
  0
VERTEX
  8
0
  5
441
 10
128.320
 20
86.3529
 30
0.000000
  70
    32
  0
VERTEX
  8
0
  5
442
 10
130.560
 20
88.9489
 30
0.000000
  70
    32
  0
VERTEX
  8
0
  5
443
 10
132.726
 20
91.5715
 30
0.000000
  70
    32
  0
VERTEX
  8
0
  5
444
 10
134.814
 20
94.2145
 30
0.000000
  70
    32
  0
VERTEX
  8
0
  5
445
 10
136.818
 20
96.8713
 30
0.000000
  70
    32
  0
VERTEX
  8
0
  5
446
 10
138.733
 20
99.5357
 30
0.000000
  70
    32
  0
VERTEX
  8
0
  5
447
 10
140.554
 20
102.201
 30
0.000000
  70
    32
  0
VERTEX
  8
0
  5
448
 10
142.278
 20
104.861
 30
0.000000
  70
    32
  0
VERTEX
  8
0
  5
449
 10
143.900
 20
107.510
 30
0.000000
  70
    32
  0
VERTEX
  8
0
  5
44A
 10
145.417
 20
110.140
 30
0.000000
  70
    32
  0
VERTEX
  8
0
  5
44B
 10
146.824
 20
112.746
 30
0.000000
  70
    32
  0
VERTEX
  8
0
  5
44C
 10
148.118
 20
115.322
 30
0.000000
  70
    32
  0
VERTEX
  8
0
  5
44D
 10
149.296
 20
117.860
 30
0.000000
  70
    32
  0
VERTEX
  8
0
  5
44E
 10
150.355
 20
120.355
 30
0.000000
  70
    32
  0
VERTEX
  8
0
  5
44F
 10
151.293
 20
122.802
 30
0.000000
  70
    32
  0
VERTEX
  8
0
  5
450
 10
152.108
 20
125.193
 30
0.000000
  70
    32
  0
VERTEX
  8
0
  5
451
 10
152.797
 20
127.524
 30
0.000000
  70
    32
  0
VERTEX
  8
0
  5
452
 10
153.359
 20
129.788
 30
0.000000
  70
    32
  0
VERTEX
  8
0
  5
453
 10
153.792
 20
131.981
 30
0.000000
  70
    32
  0
VERTEX
  8
0
  5
454
 10
154.096
 20
134.096
 30
0.000000
  70
    32
  0
VERTEX
  8
0
  5
455
 10
154.269
 20
136.130
 30
0.000000
  70
    32
  0
VERTEX
  8
0
  5
456
 10
154.312
 20
138.076
 30
0.000000
  70
    32
  0
VERTEX
  8
0
  5
457
 10
154.224
 20
139.931
 30
0.000000
  70
    32
  0
VERTEX
  8
0
  5
458
 10
154.005
 20
141.689
 30
0.000000
  70
    32
  0
VERTEX
  8
0
  5
459
 10
153.656
 20
143.347
 30
0.000000
  70
    32
  0
VERTEX
  8
0
  5
45A
 10
153.178
 20
144.901
 30
0.000000
  70
    32
  0
VERTEX
  8
0
  5
45B
 10
152.571
 20
146.346
 30
0.000000
  70
    32
  0
VERTEX
  8
0
  5
45C
 10
151.838
 20
147.680
 30
0.000000
  70
    32
  0
VERTEX
  8
0
  5
45D
 10
150.981
 20
148.899
 30
0.000000
  70
    32
  0
VERTEX
  8
0
  5
45E
 10
150.000
 20
150.000
 30
0.000000
  70
    32
  0
VERTEX
  8
0
  5
45F
 10
148.899
 20
150.981
 30
0.000000
  70
    32
  0
VERTEX
  8
0
  5
460
 10
147.680
 20
151.838
 30
0.000000
  70
    32
  0
VERTEX
  8
0
  5
461
 10
146.346
 20
152.571
 30
0.000000
  70
    32
  0
VERTEX
  8
0
  5
462
 10
144.901
 20
153.178
 30
0.000000
  70
    32
  0
VERTEX
  8
0
  5
463
 10
143.347
 20
153.656
 30
0.000000
  70
    32
  0
VERTEX
  8
0
  5
464
 10
141.689
 20
154.005
 30
0.000000
  70
    32
  0
VERTEX
  8
0
  5
465
 10
139.931
 20
154.224
 30
0.000000
  70
    32
  0
VERTEX
  8
0
  5
466
 10
138.076
 20
154.312
 30
0.000000
  70
    32
  0
VERTEX
  8
0
  5
467
 10
136.130
 20
154.269
 30
0.000000
  70
    32
  0
VERTEX
  8
0
  5
468
 10
134.096
 20
154.096
 30
0.000000
  70
    32
  0
VERTEX
  8
0
  5
469
 10
131.981
 20
153.792
 30
0.000000
  70
    32
  0
VERTEX
  8
0
  5
46A
 10
129.788
 20
153.359
 30
0.000000
  70
    32
  0
VERTEX
  8
0
  5
46B
 10
127.524
 20
152.797
 30
0.000000
  70
    32
  0
VERTEX
  8
0
  5
46C
 10
125.193
 20
152.108
 30
0.000000
  70
    32
  0
VERTEX
  8
0
  5
46D
 10
122.802
 20
151.293
 30
0.000000
  70
    32
  0
VERTEX
  8
0
  5
46E
 10
120.355
 20
150.355
 30
0.000000
  70
    32
  0
VERTEX
  8
0
  5
46F
 10
117.860
 20
149.296
 30
0.000000
  70
    32
  0
VERTEX
  8
0
  5
470
 10
115.322
 20
148.118
 30
0.000000
  70
    32
  0
VERTEX
  8
0
  5
471
 10
112.746
 20
146.824
 30
0.000000
  70
    32
  0
VERTEX
  8
0
  5
472
 10
110.140
 20
145.417
 30
0.000000
  70
    32
  0
VERTEX
  8
0
  5
473
 10
107.510
 20
143.900
 30
0.000000
  70
    32
  0
VERTEX
  8
0
  5
474
 10
104.861
 20
142.278
 30
0.000000
  70
    32
  0
VERTEX
  8
0
  5
475
 10
102.201
 20
140.554
 30
0.000000
  70
    32
  0
VERTEX
  8
0
  5
476
 10
99.5357
 20
138.733
 30
0.000000
  70
    32
  0
VERTEX
  8
0
  5
477
 10
96.8713
 20
136.818
 30
0.000000
  70
    32
  0
VERTEX
  8
0
  5
478
 10
94.2145
 20
134.814
 30
0.000000
  70
    32
  0
VERTEX
  8
0
  5
479
 10
91.5715
 20
132.726
 30
0.000000
  70
    32
  0
VERTEX
  8
0
  5
47A
 10
88.9489
 20
130.560
 30
0.000000
  70
    32
  0
VERTEX
  8
0
  5
47B
 10
86.3529
 20
128.320
 30
0.000000
  70
    32
  0
VERTEX
  8
0
  5
47C
 10
83.7898
 20
126.012
 30
0.000000
  70
    32
  0
VERTEX
  8
0
  5
47D
 10
81.2657
 20
123.641
 30
0.000000
  70
    32
  0
VERTEX
  8
0
  5
47E
 10
78.7868
 20
121.213
 30
0.000000
  70
    32
  0
VERTEX
  8
0
  5
47F
 10
76.3590
 20
118.734
 30
0.000000
  70
    32
  0
VERTEX
  8
0
  5
480
 10
73.9881
 20
116.210
 30
0.000000
  70
    32
  0
VERTEX
  8
0
  5
481
 10
71.6799
 20
113.647
 30
0.000000
  70
    32
  0
VERTEX
  8
0
  5
482
 10
69.4399
 20
111.051
 30
0.000000
  70
    32
  0
VERTEX
  8
0
  5
483
 10
67.2735
 20
108.428
 30
0.000000
  70
    32
  0
VERTEX
  8
0
  5
484
 10
65.1860
 20
105.786
 30
0.000000
  70
    32
  0
VERTEX
  8
0
  5
485
 10
63.1823
 20
103.129
 30
0.000000
  70
    32
  0
VERTEX
  8
0
  5
486
 10
61.2674
 20
100.464
 30
0.000000
  70
    32
  0
VERTEX
  8
0
  5
487
 10
59.4457
 20
97.7988
 30
0.000000
  70
    32
  0
VERTEX
  8
0
  5
488
 10
57.7218
 20
95.1385
 30
0.000000
  70
    32
  0
VERTEX
  8
0
  5
489
 10
56.0997
 20
92.4900
 30
0.000000
  70
    32
  0
VERTEX
  8
0
  5
48A
 10
54.5834
 20
89.8596
 30
0.000000
  70
    32
  0
VERTEX
  8
0
  5
48B
 10
53.1764
 20
87.2536
 30
0.000000
  70
    32
  0
VERTEX
  8
0
  5
48C
 10
51.8823
 20
84.6784
 30
0.000000
  70
    32
  0
VERTEX
  8
0
  5
48D
 10
50.7041
 20
82.1400
 30
0.000000
  70
    32
  0
VERTEX
  8
0
  5
48E
 10
49.6447
 20
79.6447
 30
0.000000
  70
    32
  0
VERTEX
  8
0
  5
48F
 10
48.7065
 20
77.1984
 30
0.000000
  70
    32
  0
VERTEX
  8
0
  5
490
 10
47.8920
 20
74.8070
 30
0.000000
  70
    32
  0
VERTEX
  8
0
  5
491
 10
47.2029
 20
72.4763
 30
0.000000
  70
    32
  0
VERTEX
  8
0
  5
492
 10
46.6411
 20
70.2119
 30
0.000000
  70
    32
  0
VERTEX
  8
0
  5
493
 10
46.2078
 20
68.0193
 30
0.000000
  70
    32
  0
VERTEX
  8
0
  5
494
 10
45.9041
 20
65.9038
 30
0.000000
  70
    32
  0
VERTEX
  8
0
  5
495
 10
45.7307
 20
63.8703
 30
0.000000
  70
    32
  0
VERTEX
  8
0
  5
496
 10
45.6881
 20
61.9240
 30
0.000000
  70
    32
  0
VERTEX
  8
0
  5
497
 10
45.7763
 20
60.0693
 30
0.000000
  70
    32
  0
VERTEX
  8
0
  5
498
 10
45.9951
 20
58.3109
 30
0.000000
  70
    32
  0
VERTEX
  8
0
  5
499
 10
46.3440
 20
56.6528
 30
0.000000
  70
    32
  0
VERTEX
  8
0
  5
49A
 10
46.8222
 20
55.0992
 30
0.000000
  70
    32
  0
VERTEX
  8
0
  5
49B
 10
47.4286
 20
53.6538
 30
0.000000
  70
    32
  0
VERTEX
  8
0
  5
49C
 10
48.1615
 20
52.3200
 30
0.000000
  70
    32
  0
VERTEX
  8
0
  5
49D
 10
49.0193
 20
51.1011
 30
0.000000
  70
    32
  0
VERTEX
  8
0
  5
49E
 10
50.0000
 20
50.0000
 30
0.000000
  70
    32
  0
SEQEND
  8
0
  5
49F
  0
ENDSEC
  0
EOF
